#!OML:ASF X:\für Bonn\!DataBase\2005_08_12_Daniel\c3d\Daniel.ASF
:FULLY-SPECIFIED
:DEGREES
125
root -10.1892 16.766 -9.33027 -179.996 -48.0928 170.769
lowerback 17.2596 -1.76179 -7.864
upperback 4.15503 -4.43906 -3.59674
thorax -4.90989 -2.32885 1.55381
lowerneck -8.65229 2.57491 -2.72416
upperneck 2.29257 3.77138 -2.18455
head 2.20067 1.7546 -0.0589174
rclavicle -7.09661e-014 5.00937e-014
rhumerus -56.1895 7.49947 -102.072
rradius 83.351
rwrist -1.43866
rhand -20.1534 24.6252
rfingers 7.12502
rthumb 6.19174 -5.26433
lclavicle -7.09661e-014 5.00937e-014
lhumerus -59.1156 -5.56164 88.235
lradius 106.074
lwrist 18.5466
lhand -9.6028 -12.9759
lfingers 7.12502
lthumb 16.3661 16.3536
rfemur -9.43538 -6.83018 9.46863
rtibia 88.8172
rfoot 1.90081 -0.0370431
rtoes 0.219941
lfemur -8.45382 1.49651 -31.8846
ltibia 48.3844
lfoot -31.1632 -0.163637
ltoes 1.00516
126
root -10.4212 16.7727 -9.57179 -179.333 -48.1549 170.816
lowerback 16.8643 -2.10933 -7.95586
upperback 3.90926 -4.84505 -3.49083
thorax -4.91063 -2.50623 1.77989
lowerneck -8.70222 2.7341 -2.90974
upperneck 2.12969 3.99347 -2.11973
head 2.14928 1.86644 0.00200878
rclavicle -7.81224e-014 9.78021e-014
rhumerus -57.2496 7.13915 -101.608
rradius 83.7983
rwrist -2.39396
rhand -20.8347 24.9482
rfingers 7.12502
rthumb 5.53396 -4.95955
lclavicle -7.81224e-014 9.78021e-014
lhumerus -57.9765 -5.09354 88.3001
lradius 106.487
lwrist 18.7169
lhand -10.5573 -12.7005
lfingers 7.12502
lthumb 15.4469 16.7023
rfemur -12.5182 -7.06617 9.82795
rtibia 89.7548
rfoot 1.15598 0.0285668
rtoes -0.12885
lfemur -7.45325 1.11103 -31.8384
ltibia 47.6495
lfoot -31.7909 0.129335
ltoes -0.364742
127
root -10.6613 16.8004 -9.81632 -178.771 -48.226 170.909
lowerback 16.4907 -2.4718 -7.92355
upperback 3.67879 -5.25473 -3.40305
thorax -4.91543 -2.68811 1.91583
lowerneck -8.80131 2.88095 -3.14104
upperneck 2.04647 4.20718 -2.00124
head 2.13068 1.97395 0.0887868
rclavicle 1.49089e-014 7.95139e-015
rhumerus -58.4679 6.92927 -101.192
rradius 84.4363
rwrist -3.50841
rhand -21.2609 25.3026
rfingers 7.12502
rthumb 5.12243 -4.61551
lclavicle 1.49089e-014 7.95139e-015
lhumerus -57.0339 -4.57676 88.3562
lradius 107.056
lwrist 18.9243
lhand -11.4092 -12.4342
lfingers 7.12502
lthumb 14.6263 17.03
rfemur -15.3307 -7.32148 10.2412
rtibia 90.2561
rfoot 0.410081 0.054603
rtoes -0.250735
lfemur -6.24322 0.717152 -31.7324
ltibia 46.6549
lfoot -32.1262 0.295072
ltoes -1.42341
128
root -10.9102 16.8464 -10.0633 -178.391 -48.3104 171.09
lowerback 16.1401 -2.82946 -7.76274
upperback 3.49769 -5.63961 -3.30719
thorax -4.89159 -2.8635 1.98113
lowerneck -8.92132 3.01267 -3.35516
upperneck 2.02073 4.4026 -1.87697
head 2.13475 2.07186 0.174796
rclavicle -2.36554e-014 -3.65764e-014
rhumerus -59.6936 6.8163 -100.787
rradius 85.1561
rwrist -4.61536
rhand -21.3137 25.5991
rfingers 7.12502
rthumb 5.07146 -4.32023
lclavicle -2.36554e-014 -3.65764e-014
lhumerus -56.1531 -3.9956 88.4281
lradius 107.751
lwrist 19.0815
lhand -12.0612 -12.175
lfingers 7.12502
lthumb 13.998 17.3337
rfemur -17.8152 -7.5435 10.7431
rtibia 90.3058
rfoot -0.272515 -0.0207824
rtoes -0.236855
lfemur -4.80851 0.346177 -31.5423
ltibia 45.4443
lfoot -32.1378 0.319415
ltoes -2.26194
129
root -11.1667 16.9142 -10.313 -178.085 -48.375 171.365
lowerback 15.6863 -3.19564 -7.50064
upperback 3.32698 -6.0088 -3.20988
thorax -4.81199 -3.03527 1.9778
lowerneck -9.00232 3.15266 -3.49253
upperneck 2.03674 4.60365 -1.79326
head 2.14773 2.172 0.235127
rclavicle 6.55989e-015 3.10104e-014
rhumerus -60.9628 6.83077 -100.429
rradius 85.9013
rwrist -5.57077
rhand -20.9567 25.8378
rfingers 7.12502
rthumb 5.41619 -4.07297
lclavicle 6.55989e-015 3.10104e-014
lhumerus -55.4077 -3.27054 88.4889
lradius 108.612
lwrist 19.171
lhand -12.4783 -11.8454
lfingers 7.12502
lthumb 13.5961 17.6906
rfemur -20.1058 -7.64709 11.3933
rtibia 89.8965
rfoot -0.96191 -0.170908
rtoes -0.619264
lfemur -3.29767 -0.18074 -31.3382
ltibia 44.0709
lfoot -31.8119 0.420905
ltoes -2.86114
130
root -11.4265 16.9978 -10.5633 -177.832 -48.4291 171.71
lowerback 15.1379 -3.55807 -7.18254
upperback 3.16894 -6.35412 -3.07987
thorax -4.67235 -3.19874 1.96125
lowerneck -9.04535 3.27908 -3.70731
upperneck 2.05987 4.79226 -1.66995
head 2.15299 2.26673 0.319911
rclavicle 1.61016e-014 2.38542e-014
rhumerus -62.2926 7.13704 -100.086
rradius 86.7541
rwrist -6.3554
rhand -20.3539 25.8883
rfingers 7.12502
rthumb 5.99815 -4.0068
lclavicle 1.61016e-014 2.38542e-014
lhumerus -54.7306 -2.44109 88.5967
lradius 109.618
lwrist 19.1596
lhand -12.6373 -11.4824
lfingers 7.12502
lthumb 13.4428 18.0638
rfemur -22.1974 -7.63612 12.1441
rtibia 89.0086
rfoot -1.6428 -0.330801
rtoes -1.289
lfemur -1.80825 -0.676187 -31.0611
ltibia 42.6005
lfoot -31.0171 0.406516
ltoes -3.19896
131
root -11.6852 17.0975 -10.8122 -178.022 -48.4706 172.616
lowerback 14.6108 -3.93007 -6.439
upperback 3.01928 -6.64474 -2.88041
thorax -4.57972 -3.33687 1.77322
lowerneck -9.10224 3.38953 -3.8894
upperneck 2.14628 4.95979 -1.54128
head 2.18229 2.35055 0.401379
rclavicle 6.16232e-015 -1.59028e-014
rhumerus -63.5774 7.56324 -99.8504
rradius 87.6161
rwrist -6.92209
rhand -19.6044 25.8847
rfingers 7.12502
rthumb 6.72168 -3.98864
lclavicle 6.16232e-015 -1.59028e-014
lhumerus -54.1149 -1.76587 88.7299
lradius 110.697
lwrist 19.1438
lhand -12.7573 -11.2574
lfingers 7.12502
lthumb 13.3271 18.2965
rfemur -24.0436 -7.41123 13.4299
rtibia 87.5766
rfoot -2.27936 -0.688864
rtoes -2.05352
lfemur -0.352551 -1.16057 -30.3761
ltibia 41.093
lfoot -29.7047 0.431182
ltoes -3.74066
132
root -11.9472 17.2071 -11.064 -178.191 -48.5358 173.496
lowerback 14.0465 -4.29633 -5.70793
upperback 2.87128 -6.93625 -2.6632
thorax -4.46557 -3.47696 1.60352
lowerneck -9.23366 3.49587 -4.06467
upperneck 2.3081 5.12746 -1.40687
head 2.25008 2.4327 0.486946
rclavicle -4.62174e-014 -1.35174e-014
rhumerus -64.6523 8.00702 -99.6032
rradius 88.2021
rwrist -7.14044
rhand -18.7391 25.9154
rfingers 7.12502
rthumb 7.55696 -3.92965
lclavicle -4.62174e-014 -1.35174e-014
lhumerus -53.4577 -1.32119 88.9278
lradius 111.788
lwrist 19.171
lhand -12.9702 -11.0619
lfingers 7.12502
lthumb 13.1219 18.5052
rfemur -25.6685 -7.14875 14.6867
rtibia 85.7166
rfoot -2.8453 -1.08581
rtoes -3.28738
lfemur 1.07543 -1.63192 -29.7248
ltibia 39.5675
lfoot -27.8683 0.56614
ltoes -4.69905
133
root -12.218 17.3286 -11.3234 -178.036 -48.6198 173.928
lowerback 13.4344 -4.62983 -5.27564
upperback 2.73664 -7.24407 -2.52229
thorax -4.2883 -3.62757 1.51034
lowerneck -9.45355 3.61899 -4.01848
upperneck 2.53553 5.30521 -1.39347
head 2.36487 2.51621 0.500979
rclavicle -1.89641e-013 6.36111e-014
rhumerus -65.5488 8.48218 -99.4187
rradius 88.4752
rwrist -7.05806
rhand -17.9912 26.0978
rfingers 7.12502
rthumb 8.2788 -3.71994
lclavicle -1.89641e-013 6.36111e-014
lhumerus -52.9301 -1.13526 89.1084
lradius 112.751
lwrist 19.2292
lhand -13.3871 -11.2635
lfingers 7.12502
lthumb 12.7201 18.3291
rfemur -27 -6.92612 15.5142
rtibia 83.4665
rfoot -3.28438 -1.30247
rtoes -5.07373
lfemur 2.49799 -2.07522 -29.4145
ltibia 38.0447
lfoot -25.6923 0.77826
ltoes -5.81027
134
root -12.4906 17.4535 -11.5857 -177.821 -48.7189 174.274
lowerback 12.8424 -4.95144 -4.89991
upperback 2.5826 -7.555 -2.39634
thorax -4.13935 -3.77848 1.43163
lowerneck -9.73146 3.74303 -3.81298
upperneck 2.85923 5.4769 -1.48355
head 2.53112 2.59257 0.458514
rclavicle 1.03865e-013 -5.00937e-014
rhumerus -66.527 9.13283 -99.3695
rradius 88.5432
rwrist -6.78296
rhand -17.5829 26.4636
rfingers 7.12502
rthumb 8.67286 -3.33825
lclavicle 1.03865e-013 -5.00937e-014
lhumerus -52.4094 -1.09732 89.3692
lradius 113.573
lwrist 19.2564
lhand -13.928 -11.701
lfingers 7.12502
lthumb 12.1985 17.9233
rfemur -28.0946 -6.68639 16.2251
rtibia 80.8706
rfoot -3.69987 -1.36392
rtoes -6.28152
lfemur 3.88283 -2.42916 -29.1282
ltibia 36.4871
lfoot -23.1813 0.992474
ltoes -6.43
135
root -12.7651 17.578 -11.8517 -177.55 -48.8119 174.559
lowerback 12.2129 -5.26326 -4.62127
upperback 2.42042 -7.86762 -2.23901
thorax -3.96265 -3.93005 1.42976
lowerneck -10.0206 3.88404 -3.64223
upperneck 3.20393 5.6745 -1.54809
head 2.70635 2.68177 0.432582
rclavicle -7.86193e-014 -1.11319e-014
rhumerus -67.5957 9.99883 -99.4112
rradius 88.5685
rwrist -6.52955
rhand -17.4873 26.8491
rfingers 7.12502
rthumb 8.76516 -2.94894
lclavicle -7.86193e-014 -1.11319e-014
lhumerus -51.9591 -1.11684 89.6936
lradius 114.396
lwrist 19.2117
lhand -14.492 -12.3256
lfingers 7.12502
lthumb 11.6546 17.3303
rfemur -29.0234 -6.39856 16.8324
rtibia 78.0054
rfoot -4.07628 -1.28554
rtoes -7.45143
lfemur 5.2303 -2.69376 -28.8387
ltibia 34.8788
lfoot -20.3536 1.18791
ltoes -6.72937
136
root -13.0427 17.7072 -12.1215 -177.227 -48.9205 174.755
lowerback 11.5726 -5.55903 -4.3956
upperback 2.27091 -8.17369 -2.11332
thorax -3.76496 -4.08019 1.41596
lowerneck -10.3703 4.02269 -3.35195
upperneck 3.61566 5.86091 -1.654
head 2.92313 2.76391 0.375913
rclavicle -7.9812e-014 8.74653e-015
rhumerus -68.6465 10.846 -99.5404
rradius 88.5811
rwrist -6.23917
rhand -17.5473 27.0205
rfingers 7.12502
rthumb 8.70721 -2.77996
lclavicle -7.9812e-014 8.74653e-015
lhumerus -51.568 -1.29641 89.9731
lradius 115.203
lwrist 19.1236
lhand -15.0107 -13.0178
lfingers 7.12502
lthumb 11.1544 16.6657
rfemur -29.7342 -6.13093 17.3063
rtibia 74.8806
rfoot -4.24008 -1.13674
rtoes -8.36852
lfemur 6.55108 -2.84798 -28.5301
ltibia 33.2422
lfoot -17.076 1.29799
ltoes -6.78249
137
root -13.3232 17.8415 -12.3966 -176.884 -49.0328 174.913
lowerback 10.9125 -5.8301 -4.19595
upperback 2.13245 -8.4552 -2.00247
thorax -3.54494 -4.2197 1.38979
lowerneck -10.7348 4.14927 -3.03719
upperneck 4.02953 6.02513 -1.72777
head 3.1464 2.83708 0.325115
rclavicle 1.45113e-014 -8.74653e-015
rhumerus -69.7834 11.6262 -99.7361
rradius 88.6852
rwrist -5.98024
rhand -17.701 27.0425
rfingers 7.12502
rthumb 8.5589 -2.764
lclavicle 1.45113e-014 -8.74653e-015
lhumerus -51.2214 -1.61041 90.2453
lradius 116.001
lwrist 19.0274
lhand -15.3778 -13.6646
lfingers 7.12502
lthumb 10.8003 16.0378
rfemur -30.2225 -5.8627 17.7177
rtibia 71.4814
rfoot -4.22284 -1.00882
rtoes -9.1913
lfemur 7.81171 -2.99964 -28.1907
ltibia 31.6055
lfoot -13.3837 1.36872
ltoes -6.16847
